<svg width="450" height="450" viewBox="0 0 450 450" fill="none" xmlns="http://www.w3.org/2000/svg">
<path d="M224.992 344.96C200.426 292.307 157.944 249.825 105.291 225.258C157.944 200.692 200.426 158.225 224.992 105.557C249.558 158.225 292.041 200.692 344.694 225.258C292.041 249.825 249.558 292.307 224.992 344.96Z" fill="#DC2626"/>
<path d="M269.196 223.834L255.88 219.328C250.982 217.685 247.352 213.523 246.319 208.469L240.702 180.695C240.546 180.006 239.935 179.49 239.2 179.49C238.465 179.49 237.854 180.006 237.698 180.695L232.08 208.469C231.048 213.523 227.418 217.669 222.52 219.328L209.204 223.834C208.578 224.038 208.171 224.632 208.171 225.274C208.171 225.915 208.578 226.51 209.204 226.713L222.52 231.22C227.418 232.863 231.048 237.025 232.08 242.079L237.698 269.822C237.854 270.51 238.465 271.027 239.2 271.027C239.935 271.027 240.546 270.51 240.702 269.822L246.319 242.079C247.352 237.025 250.982 232.879 255.88 231.22L269.196 226.713C269.822 226.51 270.228 225.915 270.228 225.274C270.228 224.632 269.822 224.038 269.196 223.834Z" fill="#FFFDF7"/>
<path d="M197.609 198.376L202.304 199.972C204.025 200.567 205.324 202.006 205.683 203.822L207.671 213.617C207.718 213.867 207.921 214.055 208.187 214.055C208.453 214.055 208.656 213.867 208.703 213.617L210.691 203.822C211.05 202.038 212.334 200.567 214.07 199.972L218.765 198.376C218.968 198.298 219.124 198.095 219.124 197.86C219.124 197.625 218.968 197.422 218.765 197.344L214.07 195.748C212.349 195.153 211.05 193.713 210.691 191.898L208.703 182.103C208.656 181.853 208.453 181.665 208.187 181.665C207.921 181.665 207.718 181.853 207.671 182.103L205.683 191.898C205.324 193.682 204.04 195.153 202.304 195.748L197.609 197.344C197.406 197.422 197.25 197.625 197.25 197.86C197.25 198.095 197.406 198.298 197.609 198.376Z" fill="#FFFDF7"/>
<path d="M208.563 246.523L202.272 244.379C199.957 243.613 198.22 241.641 197.766 239.247L195.106 226.119C195.028 225.79 194.746 225.556 194.417 225.556C194.089 225.556 193.776 225.79 193.729 226.119L191.069 239.247C190.584 241.641 188.847 243.597 186.563 244.379L180.272 246.523C179.991 246.633 179.787 246.883 179.787 247.196C179.787 247.509 179.991 247.79 180.272 247.869L186.563 250.012C188.878 250.779 190.615 252.751 191.069 255.145L193.729 268.273C193.807 268.601 194.089 268.836 194.417 268.836C194.746 268.836 195.059 268.601 195.106 268.273L197.766 255.145C198.251 252.751 199.988 250.795 202.272 250.012L208.563 247.869C208.844 247.759 209.048 247.509 209.048 247.196C209.048 246.883 208.844 246.601 208.563 246.523Z" fill="#FFFDF7"/>
</svg>
