<svg xmlns="http://www.w3.org/2000/svg" viewBox="0 0 832.1 624.3" preserveAspectRatio="none">
<g id="Layer_2" data-name="Layer 2">
<g id="Layer_1-2" data-name="Layer 1">
<g>
<path d="M364.21,521a2.11,2.11,0,0,1-1.44-1.3Q233.32,260.63,103.89,1.53c-.13-.26.06-.68.1-1.07a3.09,3.09,0,0,1,1-.38q103.77,0,207.54,0c.4.6.78,1.06,1.06,1.57C315.73,5.48,467.81,310,468.71,312.29c0,.08,0,.2,0,.32a1,1,0,0,1-.06.35L365.93,518.63c-.27.53-.54,1.06-.84,1.57a2.63,2.63,0,0,1-.48.52A2.38,2.38,0,0,1,364.21,521Z" style="fill: #e4003c"/>
<path d="M571.49,521a5.22,5.22,0,0,1-.49-1.29q-.06-258.55-.09-517.1a3.62,3.62,0,0,1,.37-2.07c.54-.63,1.29-.51,2-.53,1,0,1.91,0,2.86,0H827.54c1.18,0,2.37,0,3.56,0a1,1,0,0,1,1,.83c-.16.72-.68.89-1.32.9-3,.05-5.92.33-8.88.6a100.29,100.29,0,0,0-56.84,23.87,101.52,101.52,0,0,0-33.3,52.79,103.64,103.64,0,0,0-3.3,23.22c0,1.19,0,2.38,0,3.57q0,154.59,0,309.19a105.12,105.12,0,0,0,6.73,37.65c12.5,32.92,41,56.77,73.6,63.92a99.26,99.26,0,0,0,13,2.09c3.08.25,6.15.55,9.24.63a2.66,2.66,0,0,1,.89.29.89.89,0,0,1,0,1.06c-.2.11-.4.32-.6.32Q701.49,521,571.49,521Z" style="fill: #e4003c"/>
<path d="M208.87,519.48v1.29a7.51,7.51,0,0,1-1.36.29c-3.08.05-6.15.34-9.23.6a94.78,94.78,0,0,0-19.85,3.9,103.38,103.38,0,0,0-70.24,74.61,87.62,87.62,0,0,0-2.58,18c0,1.66-.25,3.32-.38,5a1.31,1.31,0,0,1-.63,1.2c-.62.08-.81-.4-.88-.85a29.91,29.91,0,0,1-.37-3.54c-1.31-43.38-31.83-84.1-78-95.77a92.23,92.23,0,0,0-14.71-2.48c-3.08-.26-6.15-.53-9.24-.59A7.61,7.61,0,0,1,0,520.75l.05-1.06a3.36,3.36,0,0,1,2.13-.44A111.84,111.84,0,0,0,16,518a92.46,92.46,0,0,0,28.45-8.67c29.2-14.38,48-37.35,56.18-68.89A82,82,0,0,0,103.32,421a20.28,20.28,0,0,1,.65-5.44c1-.07,1.16.4,1.21.86.17,1.65.33,3.31.41,5A99.82,99.82,0,0,0,127,479.25a101.32,101.32,0,0,0,53.06,35.94,97.62,97.62,0,0,0,18.82,3.53C202.21,519,205.53,519,208.87,519.48Z" style="fill: #e4003c"/>
</g>
</g>
</g>
</svg>
