<svg width="400" height="400" viewBox="0 0 400 400" fill="none" xmlns="http://www.w3.org/2000/svg">
<rect width="400" height="400" fill="#121825"/>
<g clip-path="url(#clip0_121_1914)">
<path d="M199.493 91.2389C203.109 105.007 208.569 118.048 215.657 129.957C218.343 127.851 220.972 125.862 223.514 124.003C211.358 103.104 204.372 78.8363 204.372 53H194.613C194.613 78.8363 187.627 103.104 175.472 124.003C178.013 125.862 180.642 127.866 183.329 129.957C190.416 118.048 195.876 105.007 199.493 91.2389V91.2389Z" fill="#E5D540"/>
<path d="M274.999 175.471C272.123 173.859 269.335 172.102 266.648 170.243C263.714 168.282 260.94 166.191 258.196 163.998C255.61 161.994 253.113 159.902 250.673 157.651C247.449 154.674 244.326 151.552 241.349 148.328C238.807 150.128 236.179 152.133 233.536 154.238C237.05 158.189 240.812 161.95 244.762 165.421C247.158 167.614 249.642 169.763 252.227 171.768C254.957 173.961 257.789 176.023 260.679 178.012C263.409 179.871 266.198 181.629 269.03 183.328C280.997 190.415 293.98 195.876 307.748 199.492C293.98 203.108 280.982 208.569 269.03 215.656C266.198 217.37 263.409 219.127 260.679 220.971C257.803 222.975 254.971 225.023 252.227 227.216C249.642 229.22 247.144 231.37 244.762 233.563C240.812 237.034 237.05 240.795 233.536 244.745C236.179 246.851 238.807 248.841 241.349 250.656C244.326 247.432 247.449 244.31 250.673 241.332C253.113 239.081 255.61 236.99 258.196 234.986C260.926 232.793 263.714 230.687 266.648 228.741C269.335 226.882 272.123 225.125 274.999 223.513C295.897 211.357 320.121 204.372 346.001 204.372V194.612C320.121 194.612 295.897 187.627 274.999 175.471V175.471Z" fill="#E5D540"/>
<path d="M132.353 228.741C135.287 230.702 138.061 232.793 140.806 234.986C143.391 236.99 145.889 239.081 148.328 241.332C151.553 244.31 154.675 247.432 157.652 250.656C160.194 248.855 162.822 246.851 165.466 244.745C161.951 240.795 158.19 237.034 154.239 233.563C151.843 231.37 149.36 229.22 146.775 227.216C144.044 225.023 141.212 222.961 138.322 220.971C135.592 219.112 132.803 217.355 129.971 215.656C118.005 208.569 105.021 203.108 91.2534 199.492C105.021 195.876 118.019 190.415 129.971 183.328C132.803 181.614 135.592 179.857 138.322 178.012C141.198 176.008 144.03 173.961 146.775 171.768C149.36 169.763 151.858 167.614 154.239 165.421C158.19 161.95 161.951 158.189 165.466 154.238C162.822 152.133 160.194 150.143 157.652 148.328C154.675 151.552 151.553 154.674 148.328 157.651C145.889 159.902 143.391 161.994 140.806 163.998C138.075 166.191 135.287 168.297 132.353 170.243C129.667 172.102 126.878 173.859 124.003 175.471C103.104 187.627 78.8799 194.612 53 194.612V204.372C78.8799 204.372 103.104 211.357 124.003 223.513C126.878 225.125 129.667 226.882 132.353 228.741V228.741Z" fill="#E5D540"/>
<path d="M199.493 307.763C195.876 293.995 190.416 280.953 183.329 269.044C180.642 271.15 178.013 273.14 175.472 274.999C187.627 295.897 194.613 320.165 194.613 346.001H204.372C204.372 320.165 211.358 295.897 223.514 274.999C220.972 273.14 218.343 271.136 215.657 269.044C208.569 280.953 203.109 293.995 199.493 307.763V307.763Z" fill="#E5D540"/>
<path d="M272.253 236.759C269.377 238.705 266.545 240.811 263.8 243.062C275.912 261.274 281.475 275.724 283.915 283.93C275.709 281.49 261.259 275.928 243.047 263.815C240.462 262.058 237.775 260.199 234.987 258.195C232.445 256.336 229.904 254.39 227.217 252.241C224.777 250.28 222.236 248.189 219.651 245.996C217.85 244.427 215.991 242.772 214.088 241.058H214.045C211.707 238.909 209.354 236.716 206.958 234.363L231.225 210.095L234.348 206.973C236.686 209.369 238.937 211.765 241.043 214.06H241.086C242.742 215.962 244.412 217.821 245.966 219.68C248.696 217.487 251.528 215.381 254.418 213.435C252.56 211.242 250.613 208.991 248.464 206.697C246.358 204.402 244.165 201.904 241.827 199.522C244.165 197.126 246.373 194.643 248.464 192.348C250.613 190.053 252.56 187.802 254.418 185.609C251.543 183.649 248.711 181.558 245.966 179.365C244.398 181.224 242.742 183.082 241.086 184.985H241.043C238.937 187.28 236.7 189.676 234.348 192.072L231.225 188.95L206.958 164.682C209.354 162.344 211.692 160.136 214.045 157.987H214.088C215.991 156.273 217.85 154.618 219.651 153.049C222.236 150.856 224.777 148.75 227.217 146.804C229.904 144.655 232.445 142.709 234.987 140.85C237.775 138.846 240.462 136.987 243.047 135.229C261.259 123.117 275.709 117.555 283.915 115.115C281.475 123.321 275.912 137.771 263.8 155.983C266.531 158.234 269.363 160.325 272.253 162.286C293.296 130.989 295.983 109.887 296.128 108.711L296.913 102.117L290.319 102.901C289.143 103.047 268.055 105.733 236.744 126.777C234.159 128.491 231.472 130.335 228.742 132.397C226.2 134.256 223.615 136.202 220.972 138.352C218.489 140.298 215.947 142.404 213.348 144.655C211.155 146.456 208.904 148.46 206.653 150.566H206.609C204.271 152.671 201.918 154.908 199.522 157.261L199.478 157.217L199.435 157.261C197.038 154.923 194.7 152.671 192.347 150.566H192.304C190.053 148.46 187.816 146.47 185.609 144.655C183.024 142.404 180.482 140.312 177.984 138.352C175.341 136.202 172.756 134.256 170.215 132.397C167.484 130.35 164.797 128.491 162.212 126.777C130.916 105.733 109.814 103.047 108.637 102.901L102.044 102.117L102.828 108.711C102.973 109.887 105.66 130.974 126.704 162.286C129.579 160.34 132.411 158.234 135.156 155.983C123.044 137.771 117.482 123.321 115.042 115.115C123.247 117.555 137.698 123.117 155.909 135.229C158.495 136.987 161.181 138.846 163.97 140.85C166.511 142.709 169.053 144.655 171.739 146.804C174.179 148.765 176.721 150.856 179.306 153.049C181.107 154.618 182.966 156.273 184.868 157.987H184.912C187.25 160.136 189.603 162.329 191.999 164.682L167.731 188.95L164.609 192.072C162.271 189.676 160.019 187.28 157.914 184.985H157.87C156.214 183.082 154.544 181.224 152.99 179.365C150.26 181.558 147.428 183.663 144.538 185.609C146.397 187.802 148.343 190.053 150.492 192.348C152.598 194.643 154.791 197.141 157.129 199.522C154.791 201.919 152.584 204.402 150.492 206.697C148.343 208.991 146.397 211.242 144.538 213.435C147.414 215.396 150.246 217.487 152.99 219.68C154.559 217.821 156.214 215.962 157.87 214.06H157.914C160.019 211.765 162.256 209.369 164.609 206.973L167.731 210.095L191.999 234.363C189.603 236.701 187.264 238.909 184.912 241.058H184.868C182.966 242.772 181.107 244.427 179.306 245.996C176.721 248.189 174.179 250.295 171.739 252.241C169.053 254.39 166.511 256.336 163.97 258.195C161.181 260.199 158.495 262.058 155.909 263.815C137.698 275.928 123.247 281.49 115.042 283.93C117.482 275.724 123.044 261.274 135.156 243.062C132.426 240.811 129.594 238.72 126.704 236.759C105.66 268.056 102.973 289.158 102.828 290.334L102.044 296.928L108.637 296.143C109.814 295.998 130.901 293.311 162.212 272.268C164.797 270.554 167.484 268.71 170.215 266.647C172.756 264.788 175.341 262.842 177.984 260.693C180.468 258.747 183.009 256.641 185.609 254.39C187.802 252.589 190.053 250.585 192.304 248.479H192.347C194.686 246.373 197.038 244.137 199.435 241.784L199.478 241.828L199.522 241.784C201.918 244.122 204.256 246.373 206.609 248.479H206.653C208.904 250.585 211.14 252.575 213.348 254.39C215.933 256.641 218.474 258.732 220.972 260.693C223.615 262.842 226.2 264.788 228.742 266.647C231.472 268.695 234.159 270.554 236.744 272.268C268.041 293.311 289.143 295.998 290.319 296.143L296.913 296.928L296.128 290.334C295.983 289.158 293.296 268.071 272.253 236.759V236.759ZM202.673 223.819L199.493 227L196.312 223.819L175.167 202.674L171.986 199.493L175.167 196.313L196.312 175.167L199.493 171.987L202.673 175.167L223.819 196.313L226.999 199.493L223.819 202.674L202.673 223.819Z" fill="#E5D540"/>
</g>
<defs>
<clipPath id="clip0_121_1914">
<rect width="293" height="293" fill="white" transform="translate(53 53)"/>
</clipPath>
</defs>
</svg>
