<svg width="41" height="41" viewBox="0 0 41 41" fill="none" xmlns="http://www.w3.org/2000/svg">
<g clip-path="url(#clip0_121_1865)">
<path d="M20.499 5.35083C21.005 7.27737 21.7691 9.10231 22.7608 10.7687C23.1368 10.4741 23.5046 10.1956 23.8603 9.93551C22.1593 7.01115 21.1818 3.61532 21.1818 0H19.8162C19.8162 3.61532 18.8387 7.01115 17.1377 9.93551C17.4933 10.1956 17.8612 10.4761 18.2371 10.7687C19.2288 9.10231 19.993 7.27737 20.499 5.35083V5.35083Z" fill="#E5D540"/>
<path d="M31.0645 17.1377C30.6621 16.9121 30.2719 16.6662 29.896 16.4061C29.4854 16.1317 29.0973 15.8391 28.7132 15.5322C28.3515 15.2518 28.0019 14.9592 27.6605 14.6442C27.2094 14.2276 26.7724 13.7906 26.3558 13.3395C26.0002 13.5915 25.6324 13.8719 25.2625 14.1666C25.7543 14.7194 26.2806 15.2457 26.8334 15.7314C27.1687 16.0383 27.5162 16.339 27.878 16.6195C28.26 16.9263 28.6563 17.2149 29.0607 17.4933C29.4428 17.7535 29.833 17.9994 30.2292 18.2371C31.9038 19.2288 33.7206 19.993 35.6471 20.499C33.7206 21.005 31.9018 21.7691 30.2292 22.7608C29.833 23.0006 29.4428 23.2465 29.0607 23.5046C28.6583 23.7851 28.262 24.0716 27.878 24.3785C27.5162 24.6589 27.1667 24.9597 26.8334 25.2666C26.2806 25.7523 25.7543 26.2786 25.2625 26.8314C25.6324 27.126 26.0002 27.4045 26.3558 27.6585C26.7724 27.2073 27.2094 26.7704 27.6605 26.3538C28.0019 26.0388 28.3515 25.7462 28.7132 25.4657C29.0953 25.1589 29.4854 24.8642 29.896 24.5919C30.2719 24.3317 30.6621 24.0858 31.0645 23.8603C33.9888 22.1593 37.3786 21.1818 41 21.1818V19.8162C37.3786 19.8162 33.9888 18.8387 31.0645 17.1377V17.1377Z" fill="#E5D540"/>
<path d="M11.104 24.5919C11.5145 24.8662 11.9027 25.1589 12.2868 25.4657C12.6485 25.7462 12.9981 26.0388 13.3395 26.3538C13.7906 26.7704 14.2276 27.2073 14.6442 27.6585C14.9998 27.4065 15.3676 27.126 15.7375 26.8314C15.2457 26.2786 14.7194 25.7523 14.1666 25.2666C13.8313 24.9597 13.4838 24.6589 13.122 24.3785C12.74 24.0716 12.3437 23.783 11.9393 23.5046C11.5572 23.2445 11.167 22.9986 10.7708 22.7608C9.09621 21.7691 7.27941 21.005 5.35286 20.499C7.27941 19.993 9.09824 19.2288 10.7708 18.2371C11.167 17.9973 11.5572 17.7514 11.9393 17.4933C12.3417 17.2129 12.7379 16.9263 13.122 16.6195C13.4838 16.339 13.8333 16.0383 14.1666 15.7314C14.7194 15.2457 15.2457 14.7194 15.7375 14.1666C15.3676 13.8719 14.9998 13.5935 14.6442 13.3395C14.2276 13.7906 13.7906 14.2276 13.3395 14.6442C12.9981 14.9592 12.6485 15.2518 12.2868 15.5322C11.9047 15.8391 11.5145 16.1338 11.104 16.4061C10.7281 16.6662 10.3379 16.9121 9.93551 17.1377C7.01115 18.8387 3.62141 19.8162 0 19.8162V21.1818C3.62141 21.1818 7.01115 22.1593 9.93551 23.8603C10.3379 24.0858 10.7281 24.3317 11.104 24.5919V24.5919Z" fill="#E5D540"/>
<path d="M20.499 35.6492C19.993 33.7226 19.2288 31.8977 18.2371 30.2313C17.8612 30.5259 17.4933 30.8043 17.1377 31.0645C18.8387 33.9888 19.8162 37.3847 19.8162 41H21.1818C21.1818 37.3847 22.1593 33.9888 23.8603 31.0645C23.5046 30.8043 23.1368 30.5239 22.7608 30.2313C21.7691 31.8977 21.005 33.7226 20.499 35.6492V35.6492Z" fill="#E5D540"/>
<path d="M30.6804 25.7136C30.278 25.986 29.8817 26.2806 29.4976 26.5956C31.1925 29.144 31.9708 31.1661 32.3123 32.3143C31.1641 31.9729 29.142 31.1945 26.5936 29.4997C26.2319 29.2538 25.8559 28.9936 25.4657 28.7132C25.1101 28.4531 24.7544 28.1808 24.3785 27.88C24.0371 27.6056 23.6814 27.313 23.3197 27.0061C23.0677 26.7867 22.8076 26.555 22.5414 26.3152H22.5353C22.2081 26.0144 21.8789 25.7076 21.5435 25.3783L24.9394 21.9825L25.3763 21.5456C25.7035 21.8809 26.0185 22.2162 26.3131 22.5373H26.3192C26.5509 22.8035 26.7846 23.0636 27.0021 23.3238C27.3841 23.0169 27.7804 22.7222 28.1848 22.4499C27.9247 22.143 27.6524 21.828 27.3516 21.507C27.0569 21.1859 26.7501 20.8363 26.4229 20.503C26.7501 20.1677 27.059 19.8202 27.3516 19.4991C27.6524 19.178 27.9247 18.863 28.1848 18.5562C27.7824 18.2818 27.3862 17.9892 27.0021 17.6823C26.7826 17.9424 26.5509 18.2026 26.3192 18.4688H26.3131C26.0185 18.7899 25.7055 19.1252 25.3763 19.4605L24.9394 19.0236L21.5435 15.6278C21.8789 15.3006 22.206 14.9917 22.5353 14.6909H22.5414C22.8076 14.4511 23.0677 14.2194 23.3197 13.9999C23.6814 13.6931 24.0371 13.3984 24.3785 13.1261C24.7544 12.8253 25.1101 12.553 25.4657 12.2929C25.8559 12.0124 26.2319 11.7523 26.5936 11.5064C29.142 9.81154 31.1641 9.0332 32.3123 8.69179C31.9708 9.83999 31.1925 11.8621 29.4976 14.4105C29.8797 14.7254 30.276 15.0181 30.6804 15.2924C33.6251 10.913 34.001 7.96019 34.0214 7.79558L34.1311 6.87296L33.2085 6.9827C33.0439 7.00302 30.0931 7.37898 25.7116 10.3237C25.3499 10.5635 24.9739 10.8216 24.5919 11.1101C24.2362 11.3703 23.8745 11.6426 23.5046 11.9433C23.1571 12.2157 22.8015 12.5103 22.4377 12.8253C22.1308 13.0773 21.8159 13.3578 21.5009 13.6524H21.4948C21.1676 13.9471 20.8384 14.2601 20.503 14.5893L20.4969 14.5832L20.4908 14.5893C20.1555 14.2621 19.8283 13.9471 19.4991 13.6524H19.493C19.178 13.3578 18.8651 13.0793 18.5562 12.8253C18.1944 12.5103 17.8388 12.2177 17.4893 11.9433C17.1194 11.6426 16.7577 11.3703 16.402 11.1101C16.02 10.8236 15.644 10.5635 15.2823 10.3237C10.9028 7.37898 7.95003 7.00302 7.78542 6.9827L6.86279 6.87296L6.97253 7.79558C6.99286 7.96019 7.36882 10.911 10.3135 15.2924C10.7159 15.0201 11.1122 14.7254 11.4962 14.4105C9.80138 11.8621 9.02304 9.83999 8.68163 8.69179C9.82983 9.0332 11.8519 9.81154 14.4003 11.5064C14.762 11.7523 15.138 12.0124 15.5282 12.2929C15.8838 12.553 16.2394 12.8253 16.6154 13.1261C16.9568 13.4004 17.3125 13.6931 17.6742 13.9999C17.9262 14.2194 18.1863 14.4511 18.4525 14.6909H18.4586C18.7858 14.9917 19.115 15.2985 19.4504 15.6278L16.0545 19.0236L15.6176 19.4605C15.2904 19.1252 14.9754 18.7899 14.6807 18.4688H14.6746C14.443 18.2026 14.2093 17.9424 13.9918 17.6823C13.6098 17.9892 13.2135 18.2839 12.8091 18.5562C13.0692 18.863 13.3415 19.178 13.6423 19.4991C13.9369 19.8202 14.2438 20.1698 14.571 20.503C14.2438 20.8384 13.9349 21.1859 13.6423 21.507C13.3415 21.828 13.0692 22.143 12.8091 22.4499C13.2114 22.7243 13.6077 23.0169 13.9918 23.3238C14.2113 23.0636 14.443 22.8035 14.6746 22.5373H14.6807C14.9754 22.2162 15.2884 21.8809 15.6176 21.5456L16.0545 21.9825L19.4504 25.3783C19.115 25.7055 18.7878 26.0144 18.4586 26.3152H18.4525C18.1863 26.555 17.9262 26.7867 17.6742 27.0061C17.3125 27.313 16.9568 27.6077 16.6154 27.88C16.2394 28.1808 15.8838 28.4531 15.5282 28.7132C15.138 28.9936 14.762 29.2538 14.4003 29.4997C11.8519 31.1945 9.82983 31.9729 8.68163 32.3143C9.02304 31.1661 9.80138 29.144 11.4962 26.5956C11.1142 26.2806 10.7179 25.988 10.3135 25.7136C7.36882 30.0931 6.99286 33.0459 6.97253 33.2105L6.86279 34.1331L7.78542 34.0234C7.95003 34.0031 10.9008 33.6271 15.2823 30.6824C15.644 30.4426 16.02 30.1845 16.402 29.896C16.7577 29.6358 17.1194 29.3635 17.4893 29.0627C17.8368 28.7904 18.1924 28.4958 18.5562 28.1808C18.863 27.9288 19.178 27.6483 19.493 27.3536H19.4991C19.8263 27.059 20.1555 26.746 20.4908 26.4168L20.4969 26.4229L20.503 26.4168C20.8384 26.744 21.1655 27.059 21.4948 27.3536H21.5009C21.8159 27.6483 22.1288 27.9267 22.4377 28.1808C22.7994 28.4958 23.1551 28.7884 23.5046 29.0627C23.8745 29.3635 24.2362 29.6358 24.5919 29.896C24.9739 30.1825 25.3499 30.4426 25.7116 30.6824C30.091 33.6271 33.0439 34.0031 33.2085 34.0234L34.1311 34.1331L34.0214 33.2105C34.001 33.0459 33.6251 30.0951 30.6804 25.7136V25.7136ZM20.944 23.9029L20.499 24.348L20.0539 23.9029L17.095 20.944L16.65 20.499L17.095 20.0539L20.0539 17.095L20.499 16.65L20.944 17.095L23.9029 20.0539L24.348 20.499L23.9029 20.944L20.944 23.9029Z" fill="#E5D540"/>
</g>
<defs>
<clipPath id="clip0_121_1865">
<rect width="41" height="41" fill="white"/>
</clipPath>
</defs>
</svg>
